# xmcd
#
# Track frame offsets:
#	180
#	18662
#	34265
#	46204
#	61139
#	72736
#	86257
#	100221
#	116987
#	129033
#	148873
#	165826
#	181081
#
# Disc length: 2614 seconds
#
# Revision: 1
# Processed by: cddbd v1.5.2PL0 Copyright (c) Steve Scherf et al.
# Submitted via: audiograbber 1.83.01
#
DISCID=ab0a340d
DTITLE=Roto Noto - Roto Noto 1997
DYEAR=1997
DGENRE=Country
TTITLE0=Sometimes This World - Michael Terry And Jeff
TTITLE1=Take Me In Your Heart Tonight - Lauren Cook
TTITLE2=I´d Rater No Know Love - Roe Mccaw
TTITLE3=Fire And Ice - Lenny Paquette
TTITLE4=Best Years - Mark La Forme
TTITLE5=Don´t Ever Let Me Love You Again - Mary Beth Sippin
TTITLE6=No One - Randall Cousins
TTITLE7=All Because Of You - Evy
TTITLE8=I Fall To Pieces - Beverly´s Hillbilly Band
TTITLE9=The Tuch Of A Man - Taylor Black
TTITLE10=Sad Eyes - Geoffrey Wickham
TTITLE11=Sleepy Old Town - Jim Waterous
TTITLE12=For Always - Lisa Logan
EXTD=
EXTT0=
EXTT1=
EXTT2=
EXTT3=
EXTT4=
EXTT5=
EXTT6=
EXTT7=
EXTT8=
EXTT9=
EXTT10=
EXTT11=
EXTT12=
PLAYORDER=
